HIERARCHY
ROOT Hips
{
	OFFSET -338.882294 -555.210510 88.995560
	CHANNELS 6 Xposition Yposition Zposition Zrotation Yrotation Xrotation
	JOINT Spine
	{
		OFFSET 0.000000 2.080078 8.814247
		CHANNELS 6 Xposition Yposition Zposition Zrotation Yrotation Xrotation
		JOINT Spine1
		{
			OFFSET 0.000000 0.000000 8.844139
			CHANNELS 6 Xposition Yposition Zposition Zrotation Yrotation Xrotation
			JOINT Spine2
			{
				OFFSET 0.000000 0.000000 11.682266
				CHANNELS 6 Xposition Yposition Zposition Zrotation Yrotation Xrotation
				JOINT Spine3
				{
					OFFSET 0.000000 0.000000 11.746704
					CHANNELS 6 Xposition Yposition Zposition Zrotation Yrotation Xrotation
					JOINT Neck
					{
						OFFSET 0.000000 0.000000 17.658264
						CHANNELS 6 Xposition Yposition Zposition Zrotation Yrotation Xrotation
						JOINT Neck1
						{
							OFFSET 0.000000 0.000000 5.101517
							CHANNELS 6 Xposition Yposition Zposition Zrotation Yrotation Xrotation
							JOINT Head
							{
								OFFSET 0.000000 0.000000 5.101517
								CHANNELS 6 Xposition Yposition Zposition Zrotation Yrotation Xrotation
								JOINT HeadEnd
								{
									OFFSET 0.000000 0.000000 11.655090
									CHANNELS 6 Xposition Yposition Zposition Zrotation Yrotation Xrotation
									End Site
									{
										OFFSET 0.000000 0.000000 0.100006
									}
								}
							}
						}
					}
					JOINT RightShoulder
					{
						OFFSET -2.625397 0.000000 11.175217
						CHANNELS 6 Xposition Yposition Zposition Zrotation Yrotation Xrotation
						JOINT RightArm
						{
							OFFSET 0.000000 0.000000 10.434723
							CHANNELS 6 Xposition Yposition Zposition Zrotation Yrotation Xrotation
							JOINT RightForeArm
							{
								OFFSET 0.000000 0.000000 29.628418
								CHANNELS 6 Xposition Yposition Zposition Zrotation Yrotation Xrotation
								JOINT RightHand
								{
									OFFSET 0.000000 0.000000 22.857605
									CHANNELS 6 Xposition Yposition Zposition Zrotation Yrotation Xrotation
									JOINT RightHandThumb1
									{
										OFFSET -2.867310 -2.944275 3.959564
										CHANNELS 6 Xposition Yposition Zposition Zrotation Yrotation Xrotation
										JOINT RightHandThumb2
										{
											OFFSET 0.000000 0.000000 3.350403
											CHANNELS 6 Xposition Yposition Zposition Zrotation Yrotation Xrotation
											JOINT RightHandThumb3
											{
												OFFSET 0.000000 0.000000 3.756516
												CHANNELS 6 Xposition Yposition Zposition Zrotation Yrotation Xrotation
												JOINT RightHandThumb4
												{
													OFFSET 0.000000 0.000000 3.147339
													CHANNELS 6 Xposition Yposition Zposition Zrotation Yrotation Xrotation
													End Site
													{
														OFFSET 0.000000 0.000000 0.100006
													}
												}
											}
										}
									}
									JOINT RightHandIndex1
									{
										OFFSET -0.086761 -2.345276 10.030899
										CHANNELS 6 Xposition Yposition Zposition Zrotation Yrotation Xrotation
										JOINT RightHandIndex2
										{
											OFFSET 0.000000 0.000000 4.061096
											CHANNELS 6 Xposition Yposition Zposition Zrotation Yrotation Xrotation
											JOINT RightHandIndex3
											{
												OFFSET 0.000000 0.000000 3.248871
												CHANNELS 6 Xposition Yposition Zposition Zrotation Yrotation Xrotation
												JOINT RightHandIndex4
												{
													OFFSET 0.000000 0.000000 2.639709
													CHANNELS 6 Xposition Yposition Zposition Zrotation Yrotation Xrotation
													End Site
													{
														OFFSET 0.000000 0.000000 0.100006
													}
												}
											}
										}
									}
									JOINT RightHandMiddle1
									{
										OFFSET 0.104095 -0.006775 9.502945
										CHANNELS 6 Xposition Yposition Zposition Zrotation Yrotation Xrotation
										JOINT RightHandMiddle2
										{
											OFFSET 0.000000 0.000000 4.568726
											CHANNELS 6 Xposition Yposition Zposition Zrotation Yrotation Xrotation
											JOINT RightHandMiddle3
											{
												OFFSET 0.000000 0.000000 3.654984
												CHANNELS 6 Xposition Yposition Zposition Zrotation Yrotation Xrotation
												JOINT RightHandMiddle4
												{
													OFFSET 0.000000 0.000000 2.741241
													CHANNELS 6 Xposition Yposition Zposition Zrotation Yrotation Xrotation
													End Site
													{
														OFFSET 0.000000 0.000000 0.100006
													}
												}
											}
										}
									}
									JOINT RightHandRing1
									{
										OFFSET 0.086761 2.267456 8.921707
										CHANNELS 6 Xposition Yposition Zposition Zrotation Yrotation Xrotation
										JOINT RightHandRing2
										{
											OFFSET 0.000000 0.000000 4.061096
											CHANNELS 6 Xposition Yposition Zposition Zrotation Yrotation Xrotation
											JOINT RightHandRing3
											{
												OFFSET 0.000000 0.000000 3.654984
												CHANNELS 6 Xposition Yposition Zposition Zrotation Yrotation Xrotation
												JOINT RightHandRing4
												{
													OFFSET 0.000000 0.000000 2.741241
													CHANNELS 6 Xposition Yposition Zposition Zrotation Yrotation Xrotation
													End Site
													{
														OFFSET 0.000000 0.000000 0.100006
													}
												}
											}
										}
									}
									JOINT RightHandPinky1
									{
										OFFSET -0.173492 4.467224 7.976990
										CHANNELS 6 Xposition Yposition Zposition Zrotation Yrotation Xrotation
										JOINT RightHandPinky2
										{
											OFFSET 0.000000 0.000000 3.350403
											CHANNELS 6 Xposition Yposition Zposition Zrotation Yrotation Xrotation
											JOINT RightHandPinky3
											{
												OFFSET 0.000000 0.000000 2.842758
												CHANNELS 6 Xposition Yposition Zposition Zrotation Yrotation Xrotation
												JOINT RightHandPinky4
												{
													OFFSET 0.000000 0.000000 2.639709
													CHANNELS 6 Xposition Yposition Zposition Zrotation Yrotation Xrotation
													End Site
													{
														OFFSET 0.000000 0.000000 0.100006
													}
												}
											}
										}
									}
									JOINT RightForeArmEnd
									{
										OFFSET 0.000000 0.000000 0.000000
										CHANNELS 6 Xposition Yposition Zposition Zrotation Yrotation Xrotation
										End Site
										{
											OFFSET 0.000000 0.000000 0.100006
										}
									}
								}
								JOINT RightArmEnd
								{
									OFFSET 0.000000 0.000000 0.000000
									CHANNELS 6 Xposition Yposition Zposition Zrotation Yrotation Xrotation
									End Site
									{
										OFFSET 0.000000 0.000000 0.100006
									}
								}
							}
						}
					}
					JOINT LeftShoulder
					{
						OFFSET 2.625397 0.000000 11.175217
						CHANNELS 6 Xposition Yposition Zposition Zrotation Yrotation Xrotation
						JOINT LeftArm
						{
							OFFSET 0.000000 0.000000 10.813629
							CHANNELS 6 Xposition Yposition Zposition Zrotation Yrotation Xrotation
							JOINT LeftForeArm
							{
								OFFSET 0.000000 0.000000 28.724777
								CHANNELS 6 Xposition Yposition Zposition Zrotation Yrotation Xrotation
								JOINT LeftHand
								{
									OFFSET 0.644379 0.328857 25.716171
									CHANNELS 6 Xposition Yposition Zposition Zrotation Yrotation Xrotation
									JOINT LeftHandThumb1
									{
										OFFSET 2.867310 -2.944275 3.959564
										CHANNELS 6 Xposition Yposition Zposition Zrotation Yrotation Xrotation
										JOINT LeftHandThumb2
										{
											OFFSET 0.000000 0.000000 3.350403
											CHANNELS 6 Xposition Yposition Zposition Zrotation Yrotation Xrotation
											JOINT LeftHandThumb3
											{
												OFFSET 0.000000 0.000000 3.756516
												CHANNELS 6 Xposition Yposition Zposition Zrotation Yrotation Xrotation
												JOINT LeftHandThumb4
												{
													OFFSET 0.000000 0.000000 3.100006
													CHANNELS 6 Xposition Yposition Zposition Zrotation Yrotation Xrotation
													End Site
													{
														OFFSET 0.000000 0.000000 0.100006
													}
												}
											}
										}
									}
									JOINT LeftHandIndex1
									{
										OFFSET 0.086761 -2.345276 10.030899
										CHANNELS 6 Xposition Yposition Zposition Zrotation Yrotation Xrotation
										JOINT LeftHandIndex2
										{
											OFFSET 0.000000 0.000000 4.061096
											CHANNELS 6 Xposition Yposition Zposition Zrotation Yrotation Xrotation
											JOINT LeftHandIndex3
											{
												OFFSET 0.000000 0.000000 3.248871
												CHANNELS 6 Xposition Yposition Zposition Zrotation Yrotation Xrotation
												JOINT LeftHandIndex4
												{
													OFFSET 0.000000 0.000000 2.639709
													CHANNELS 6 Xposition Yposition Zposition Zrotation Yrotation Xrotation
													End Site
													{
														OFFSET 0.000000 0.000000 0.100006
													}
												}
											}
										}
									}
									JOINT LeftHandMiddle1
									{
										OFFSET -0.104095 -0.006775 9.502945
										CHANNELS 6 Xposition Yposition Zposition Zrotation Yrotation Xrotation
										JOINT LeftHandMiddle2
										{
											OFFSET 0.000000 0.000000 4.568726
											CHANNELS 6 Xposition Yposition Zposition Zrotation Yrotation Xrotation
											JOINT LeftHandMiddle3
											{
												OFFSET 0.000000 0.000000 3.654984
												CHANNELS 6 Xposition Yposition Zposition Zrotation Yrotation Xrotation
												JOINT LeftHandMiddle4
												{
													OFFSET 0.000000 0.000000 2.741241
													CHANNELS 6 Xposition Yposition Zposition Zrotation Yrotation Xrotation
													End Site
													{
														OFFSET 0.000000 0.000000 0.100006
													}
												}
											}
										}
									}
									JOINT LeftHandRing1
									{
										OFFSET -0.086761 2.267456 8.921707
										CHANNELS 6 Xposition Yposition Zposition Zrotation Yrotation Xrotation
										JOINT LeftHandRing2
										{
											OFFSET 0.000000 0.000000 4.061096
											CHANNELS 6 Xposition Yposition Zposition Zrotation Yrotation Xrotation
											JOINT LeftHandRing3
											{
												OFFSET 0.000000 0.000000 3.654984
												CHANNELS 6 Xposition Yposition Zposition Zrotation Yrotation Xrotation
												JOINT LeftHandRing4
												{
													OFFSET 0.000000 0.000000 2.741241
													CHANNELS 6 Xposition Yposition Zposition Zrotation Yrotation Xrotation
													End Site
													{
														OFFSET 0.000000 0.000000 0.100006
													}
												}
											}
										}
									}
									JOINT LeftHandPinky1
									{
										OFFSET 0.173492 4.467224 7.976990
										CHANNELS 6 Xposition Yposition Zposition Zrotation Yrotation Xrotation
										JOINT LeftHandPinky2
										{
											OFFSET 0.000000 0.000000 3.350403
											CHANNELS 6 Xposition Yposition Zposition Zrotation Yrotation Xrotation
											JOINT LeftHandPinky3
											{
												OFFSET 0.000000 0.000000 2.842758
												CHANNELS 6 Xposition Yposition Zposition Zrotation Yrotation Xrotation
												JOINT LeftHandPinky4
												{
													OFFSET 0.000000 0.000000 2.639709
													CHANNELS 6 Xposition Yposition Zposition Zrotation Yrotation Xrotation
													End Site
													{
														OFFSET 0.000000 0.000000 0.100006
													}
												}
											}
										}
									}
									JOINT LeftForeArmEnd
									{
										OFFSET 0.000000 0.000000 0.000000
										CHANNELS 6 Xposition Yposition Zposition Zrotation Yrotation Xrotation
										End Site
										{
											OFFSET 0.000000 0.000000 0.100006
										}
									}
								}
								JOINT LeftArmEnd
								{
									OFFSET 0.000000 0.000000 0.000000
									CHANNELS 6 Xposition Yposition Zposition Zrotation Yrotation Xrotation
									End Site
									{
										OFFSET 0.000000 0.000000 0.100006
									}
								}
							}
						}
					}
				}
			}
		}
	}
	JOINT RightUpLeg
	{
		OFFSET -11.289948 0.000000 0.000000
		CHANNELS 6 Xposition Yposition Zposition Zrotation Yrotation Xrotation
		JOINT RightLeg
		{
			OFFSET 0.000000 0.000000 -38.200321
			CHANNELS 6 Xposition Yposition Zposition Zrotation Yrotation Xrotation
			JOINT RightFoot
			{
				OFFSET 0.000000 0.000000 -39.900856
				CHANNELS 6 Xposition Yposition Zposition Zrotation Yrotation Xrotation
				JOINT RightToeBase
				{
					OFFSET 0.000000 -15.261658 0.000001
					CHANNELS 6 Xposition Yposition Zposition Zrotation Yrotation Xrotation
					JOINT RightToeBaseEnd
					{
						OFFSET 0.000000 -7.370728 0.000001
						CHANNELS 6 Xposition Yposition Zposition Zrotation Yrotation Xrotation
						End Site
						{
							OFFSET 0.000000 0.000000 0.100000
						}
					}
				}
				JOINT RightLegEnd
				{
					OFFSET 0.000000 0.000000 0.000000
					CHANNELS 6 Xposition Yposition Zposition Zrotation Yrotation Xrotation
					End Site
					{
						OFFSET 0.000000 0.000000 0.100000
					}
				}
			}
			JOINT RightUpLegEnd
			{
				OFFSET 0.000000 0.000000 0.000000
				CHANNELS 6 Xposition Yposition Zposition Zrotation Yrotation Xrotation
				End Site
				{
					OFFSET 0.000000 0.000000 0.099998
				}
			}
		}
	}
	JOINT LeftUpLeg
	{
		OFFSET 11.315674 0.000000 0.000000
		CHANNELS 6 Xposition Yposition Zposition Zrotation Yrotation Xrotation
		JOINT LeftLeg
		{
			OFFSET 0.000000 0.000000 -38.200321
			CHANNELS 6 Xposition Yposition Zposition Zrotation Yrotation Xrotation
			JOINT LeftFoot
			{
				OFFSET 0.000000 0.000000 -39.900856
				CHANNELS 6 Xposition Yposition Zposition Zrotation Yrotation Xrotation
				JOINT LeftToeBase
				{
					OFFSET 0.000000 -15.261658 0.000001
					CHANNELS 6 Xposition Yposition Zposition Zrotation Yrotation Xrotation
					JOINT LeftToeBaseEnd
					{
						OFFSET 0.000000 -7.539978 0.000001
						CHANNELS 6 Xposition Yposition Zposition Zrotation Yrotation Xrotation
						End Site
						{
							OFFSET 0.000000 0.000000 0.100000
						}
					}
				}
				JOINT LeftLegEnd
				{
					OFFSET 0.000000 0.000000 0.000000
					CHANNELS 6 Xposition Yposition Zposition Zrotation Yrotation Xrotation
					End Site
					{
						OFFSET 0.000000 0.000000 0.100000
					}
				}
			}
			JOINT LeftUpLegEnd
			{
				OFFSET 0.000000 0.000000 0.000000
				CHANNELS 6 Xposition Yposition Zposition Zrotation Yrotation Xrotation
				End Site
				{
					OFFSET 0.000000 0.000000 0.099998
				}
			}
		}
	}
}
MOTION
Frames: 2
Frame Time: 0.016667
19.516785 -16.430359 87.364174 -11.445749 1.617848 -13.317493 -0.000010 2.080097 8.814258 0.202808 0.073967 8.237140 -0.000005 -0.000007 8.844131 0.041695 1.099277 3.466441 -0.000013 -0.000014 11.682266 -0.798992 -0.655134 7.590008 -0.000021 0.000032 11.746700 -0.125504 -2.077715 6.927079 -0.000010 0.000015 17.658295 -3.408314 2.306130 -1.001542 0.000013 0.000006 5.101507 -4.330538 0.473241 -6.223279 -0.000005 0.000019 5.101566 -0.758104 -0.358510 -15.961358 -0.000011 -0.000010 11.655061 0.000001 0.000001 0.000000 -2.625390 -0.000013 11.175232 13.672968 -89.388311 0.484256 0.000008 0.000000 10.434677 -41.302926 -43.106161 42.834794 0.000011 -0.000015 29.628408 21.566013 0.282653 31.527719 0.000008 -0.000098 22.857553 -4.690351 -8.990612 -2.477198 -2.867315 -2.944229 3.959610 31.819543 -23.512470 42.584406 0.000008 0.000000 3.350426 -26.599721 11.071591 -45.412326 -0.000004 0.000015 3.756470 -17.569972 10.006774 -30.936099 0.000008 0.000004 3.147330 -0.000001 -0.000003 0.000001 -0.086792 -2.345260 10.030930 -37.040597 -59.851548 36.339458 -0.000032 -0.000010 4.061085 -2.968860 -45.577668 8.244855 -0.000023 0.000014 3.248901 -3.468855 -45.577671 8.244846 -0.000004 0.000008 2.639727 0.000001 -0.000002 -0.000000 0.104087 -0.006786 9.502975 -26.410357 -60.931619 28.284886 0.000001 -0.000027 4.568737 -0.733137 -44.845325 2.987913 -0.000019 0.000006 3.654997 -1.233154 -44.845270 2.987921 -0.000013 -0.000001 2.741248 0.000001 -0.000000 0.000001 0.086754 2.267452 8.921715 -12.633727 -67.531597 20.556247 -0.000002 0.000033 4.061113 0.657672 -47.226964 -3.790701 -0.000025 -0.000010 3.655010 1.657674 -47.226902 -3.790709 -0.000015 -0.000008 2.741250 -0.000001 0.000001 -0.000003 -0.173500 4.467266 7.977013 9.638649 -69.672123 6.658653 0.000011 0.000016 3.350410 2.825217 -45.597585 -11.447961 0.000004 0.000019 2.842743 4.825220 -45.597602 -11.447972 0.000007 -0.000020 2.639697 0.000002 -0.000000 -0.000004 0.000007 -0.000004 -0.000007 0.000001 -0.000002 -0.000002 -0.000033 -0.000000 -0.000003 0.000000 0.000001 0.000001 2.625420 -0.000009 11.175232 -9.548310 78.138915 -0.283534 0.000015 0.000023 10.813644 74.552041 28.398004 29.511639 -0.000008 0.000011 28.724817 -8.672412 0.765289 82.805833 0.644341 0.328839 25.716181 -16.663355 21.443058 -2.684675 2.867245 -2.944275 3.959564 -31.666970 16.919890 52.039771 0.000008 0.000008 3.350410 11.909746 -8.109651 -21.599406 0.000000 -0.000019 3.756512 7.939294 -6.118410 -14.796789 -0.000023 0.000005 3.100015 -0.000003 -0.000000 -0.000001 0.086775 -2.345316 10.030877 -83.376358 -88.441415 269.557077 -0.000014 -0.000008 4.061100 0.542714 -0.000013 -0.000410 0.000002 -0.000018 3.248879 0.040377 -0.000003 -0.001135 -0.000007 0.000017 2.639735 -0.000003 -0.000000 0.000000 -0.104095 -0.006757 9.502918 150.850356 76.972598 149.234634 -0.000002 0.000034 4.568716 -5.633110 70.748267 -8.630278 -0.000002 -0.000015 3.654993 -6.132903 70.747666 -8.630056 -0.000002 0.000005 2.741229 -0.000000 -0.000002 -0.000002 -0.086792 2.267435 8.921700 140.381520 67.697632 147.760501 0.000015 -0.000010 4.061089 9.125615 74.980635 13.176664 -0.000008 -0.000016 3.654964 10.125656 74.980642 13.176685 -0.000002 0.000005 2.741235 -0.000000 0.000001 0.000001 0.173485 4.467175 7.976982 123.663129 63.250222 142.481216 0.000023 -0.000004 3.350407 26.225263 72.438077 37.892459 0.000023 -0.000015 2.842754 28.225303 72.438111 37.892496 0.000003 -0.000003 2.639714 0.000000 -0.000001 0.000002 -0.000001 -0.000003 0.000031 0.000002 -0.000002 -0.000003 0.000003 -0.000004 -0.000004 0.000001 -0.000000 0.000000 -11.289988 -0.000031 0.000008 -1.130077 -0.118163 6.318763 0.000008 0.000005 -38.200344 -0.739687 0.297906 21.747773 0.000013 -0.000006 -39.900852 -3.728873 -0.068443 12.171109 0.000012 -15.261744 0.000022 1.317486 0.717233 -18.075940 0.000008 -7.370741 0.000002 0.000002 0.000000 0.000001 -0.000019 -0.000001 0.000002 0.000000 -0.000000 0.000000 -0.000021 0.000003 0.000005 -0.000000 0.000000 0.000000 11.315626 0.000003 0.000009 -3.566348 0.268257 5.095214 -0.000047 0.000022 -38.200356 0.044698 -0.022676 26.905080 -0.000008 -0.000042 -39.900871 7.649013 -2.459514 8.500036 -0.000018 -15.261734 0.000047 -0.046439 -0.478368 -21.281621 -0.000025 -7.539972 0.000002 -0.000001 -0.000000 -0.000000 -0.000040 -0.000000 0.000002 0.000000 -0.000000 -0.000001 -0.000010 -0.000006 -0.000008 0.000001 0.000000 0.000001 
19.499115 -16.388489 87.464462 -12.692891 1.490109 -12.058587 0.000007 2.080074 8.814229 0.176433 -0.322096 7.508124 -0.000005 0.000012 8.844145 0.005117 0.783705 3.167016 -0.000006 0.000014 11.682261 -0.519050 -0.356859 6.618056 -0.000021 -0.000057 11.746719 0.040485 -1.123120 6.312436 0.000011 -0.000027 17.658300 -2.911000 3.463850 -0.808271 -0.000004 0.000006 5.101529 -4.114733 0.407660 -5.990234 -0.000000 0.000008 5.101524 -0.798937 -0.408374 -16.113420 0.000039 0.000001 11.655094 -0.000000 0.000000 -0.000000 -2.625421 0.000012 11.175232 14.004334 -87.751094 0.398260 -0.000015 0.000002 10.434738 -47.809210 -42.248497 48.007719 -0.000031 0.000000 29.628401 20.584933 0.210976 30.904219 0.000008 -0.000109 22.857594 -4.189186 -7.896263 -2.395882 -2.867313 -2.944260 3.959595 31.819553 -23.512463 42.584338 -0.000008 0.000000 3.350426 -26.599677 11.071660 -45.412190 0.000000 0.000008 3.756458 -17.570033 10.006748 -30.936177 0.000007 0.000005 3.147322 -0.000001 -0.000003 0.000001 -0.086773 -2.345260 10.030884 -37.504852 -60.154924 36.422445 -0.000004 0.000003 4.061104 -3.016089 -45.804488 8.310870 -0.000004 0.000019 3.248898 -3.516101 -45.804471 8.310869 -0.000009 -0.000019 2.639726 0.000002 -0.000001 -0.000001 0.104081 -0.006794 9.502960 -26.809169 -61.292335 28.380413 -0.000019 -0.000029 4.568710 -0.753484 -45.119434 3.016686 -0.000001 0.000006 3.655006 -1.253475 -45.119410 3.016681 -0.000002 -0.000010 2.741269 0.000002 0.000002 -0.000002 0.086735 2.267447 8.921707 -13.073746 -68.128903 20.784846 -0.000027 -0.000022 4.061119 0.701175 -47.667504 -3.849761 -0.000001 -0.000008 3.654997 1.701197 -47.667497 -3.849793 -0.000008 0.000012 2.741233 -0.000003 -0.000002 -0.000002 -0.173492 4.467237 7.976969 9.883824 -70.485633 6.210335 0.000000 0.000025 3.350410 2.992565 -46.166813 -11.681068 0.000004 -0.000002 2.842758 4.992552 -46.166994 -11.681080 0.000042 -0.000008 2.639701 0.000001 -0.000000 0.000001 -0.000003 -0.000012 0.000000 0.000001 -0.000001 0.000001 -0.000003 0.000008 -0.000013 0.000000 0.000001 0.000003 2.625397 -0.000004 11.175216 -8.997956 78.027965 -0.260356 0.000023 0.000015 10.813644 74.768032 27.394915 31.414543 -0.000019 0.000076 28.724846 -8.712452 0.873349 78.241818 0.644325 0.328880 25.716181 -9.778849 17.965107 -2.761829 2.867310 -2.944321 3.959541 -31.644721 17.093768 51.772981 0.000038 0.000000 3.350399 12.293587 -8.271537 -22.243783 -0.000006 0.000015 3.756527 8.189157 -6.261689 -15.233347 0.000005 -0.000010 3.099999 0.000002 -0.000001 -0.000003 0.086771 -2.345240 10.030891 -127.527582 -88.020334 314.855547 -0.000008 -0.000016 4.061097 0.541912 -0.000004 -0.000410 -0.000003 0.000009 3.248898 0.039625 -0.000001 -0.001139 -0.000009 -0.000005 2.639721 0.000001 -0.000000 0.000000 -0.104086 -0.006804 9.502911 147.430125 78.144003 144.598110 0.000000 0.000012 4.568726 -5.237710 69.847844 -8.210342 0.000006 -0.000008 3.654978 -5.737713 69.847844 -8.210335 0.000013 -0.000002 2.741243 0.000000 -0.000002 0.000000 -0.086784 2.267470 8.921700 138.252345 68.573399 144.343453 -0.000015 0.000023 4.061089 8.377702 74.102607 12.400670 0.000029 0.000012 3.654976 9.376718 74.101125 12.399615 -0.000012 0.000000 2.741268 -0.000000 -0.000001 0.000000 0.173500 4.467205 7.976967 121.680558 63.748307 139.550996 0.000023 -0.000023 3.350407 24.559762 71.759081 36.142257 0.000031 0.000008 2.842777 26.559769 71.759094 36.142267 0.000003 -0.000003 2.639708 0.000000 -0.000000 -0.000003 0.000004 0.000007 0.000002 -0.000001 0.000001 0.000000 0.000029 0.000005 0.000005 -0.000001 0.000001 -0.000001 -11.289977 -0.000022 -0.000007 0.254443 -0.334191 4.888198 -0.000029 0.000010 -38.200314 -0.752921 0.299293 21.540846 -0.000023 -0.000028 -39.900867 -3.822287 -0.100210 12.614258 0.000048 -15.261727 0.000005 1.282868 0.758018 -18.271535 0.000015 -7.370729 0.000001 0.000000 -0.000000 -0.000001 -0.000023 -0.000058 0.000002 -0.000000 -0.000000 -0.000000 -0.000029 -0.000002 -0.000009 0.000000 -0.000000 -0.000000 11.315683 0.000026 -0.000000 -3.346614 0.364834 4.239344 -0.000038 0.000004 -38.200310 0.017178 -0.008482 26.288065 -0.000037 -0.000009 -39.900864 8.715052 -2.317170 8.893928 0.000006 -15.261698 0.000019 -0.045692 -0.478973 -21.377252 0.000025 -7.539977 0.000002 -0.000000 -0.000000 -0.000001 -0.000031 -0.000001 0.000002 0.000000 0.000000 -0.000001 -0.000036 -0.000001 -0.000009 0.000000 0.000000 -0.000001 
